<svg xmlns="http://www.w3.org/2000/svg" xmlns:xlink="http://www.w3.org/1999/xlink" width="1080" zoomAndPan="magnify" viewBox="0 0 810 809.999993" height="1080" preserveAspectRatio="xMidYMid meet" version="1.0"><defs><clipPath id="1015896147"><path d="M 180.058594 177.738281 L 630 177.738281 L 630 649.488281 L 180.058594 649.488281 Z M 180.058594 177.738281 " clip-rule="nonzero"/></clipPath><clipPath id="37cd7ec5de"><path d="M 191.066406 166.882812 L 629.816406 166.882812 L 629.816406 627.382812 L 191.066406 627.382812 Z M 191.066406 166.882812 " clip-rule="nonzero"/></clipPath></defs><rect x="-81" width="972" fill="#ffffff" y="-80.999999" height="971.999992" fill-opacity="1"/><rect x="-81" width="972" fill="#ffffff" y="-80.999999" height="971.999992" fill-opacity="1"/><g clip-path="url(#1015896147)"><path fill="#4f1db2" d="M 278.785156 177.773438 C 248.664062 177.773438 223.933594 202.507812 223.933594 232.625 C 223.933594 261.132812 246.328125 284.105469 274.242188 286.550781 C 275.6875 287.1875 277.203125 287.492188 278.785156 287.472656 C 280.355469 287.492188 281.863281 287.183594 283.304688 286.550781 C 311.226562 284.117188 333.632812 261.140625 333.632812 232.625 C 333.632812 202.507812 308.902344 177.773438 278.785156 177.773438 Z M 531.09375 177.773438 C 500.976562 177.773438 476.242188 202.507812 476.242188 232.625 C 476.242188 261.132812 498.636719 284.105469 526.550781 286.550781 C 528 287.1875 529.511719 287.492188 531.09375 287.472656 C 532.664062 287.492188 534.171875 287.183594 535.613281 286.550781 C 563.539062 284.117188 585.941406 261.140625 585.941406 232.625 C 585.941406 202.507812 561.210938 177.773438 531.09375 177.773438 Z M 278.785156 199.714844 C 296.933594 199.714844 311.691406 214.472656 311.691406 232.625 C 311.691406 250.773438 296.933594 265.535156 278.785156 265.535156 C 260.632812 265.535156 245.875 250.773438 245.875 232.625 C 245.875 214.472656 260.632812 199.714844 278.785156 199.714844 Z M 531.09375 199.714844 C 549.242188 199.714844 564.003906 214.472656 564.003906 232.625 C 564.003906 250.773438 549.242188 265.535156 531.09375 265.535156 C 512.941406 265.535156 498.183594 250.773438 498.183594 232.625 C 498.183594 214.472656 512.941406 199.714844 531.09375 199.714844 Z M 256.84375 298.445312 C 214.5625 298.445312 180.054688 332.953125 180.054688 375.234375 L 180.054688 462.992188 C 180.054688 481.039062 194.917969 495.902344 212.964844 495.902344 L 214.078125 495.902344 L 227.382812 620.085938 C 229.160156 636.714844 243.378906 649.484375 260.101562 649.484375 L 297.464844 649.484375 C 314.195312 649.484375 328.398438 636.71875 330.183594 620.085938 L 343.488281 495.902344 L 344.601562 495.902344 C 362.648438 495.902344 377.511719 481.039062 377.511719 462.992188 L 377.511719 419.113281 L 537.519531 419.113281 L 512.367188 444.265625 C 511.839844 444.773438 511.367188 445.324219 510.953125 445.925781 C 510.535156 446.523438 510.183594 447.160156 509.894531 447.828125 C 509.605469 448.5 509.382812 449.191406 509.234375 449.902344 C 509.082031 450.617188 509.003906 451.339844 508.996094 452.070312 C 508.988281 452.800781 509.050781 453.523438 509.1875 454.238281 C 509.324219 454.957031 509.53125 455.652344 509.808594 456.328125 C 510.082031 457.003906 510.421875 457.644531 510.828125 458.253906 C 511.230469 458.859375 511.691406 459.421875 512.207031 459.9375 C 512.722656 460.453125 513.285156 460.914062 513.894531 461.320312 C 514.5 461.722656 515.144531 462.0625 515.816406 462.339844 C 516.492188 462.613281 517.191406 462.820312 517.90625 462.957031 C 518.625 463.09375 519.347656 463.160156 520.078125 463.152344 C 520.804688 463.144531 521.527344 463.066406 522.242188 462.914062 C 522.957031 462.761719 523.648438 462.542969 524.316406 462.25 C 524.988281 461.960938 525.621094 461.609375 526.222656 461.191406 C 526.820312 460.777344 527.375 460.304688 527.878906 459.78125 L 570.792969 416.863281 C 571.128906 416.609375 571.449219 416.335938 571.753906 416.042969 C 572.054688 415.75 572.339844 415.441406 572.609375 415.117188 C 572.875 414.789062 573.125 414.453125 573.351562 414.097656 C 573.582031 413.746094 573.789062 413.378906 573.976562 413 C 574.164062 412.625 574.328125 412.234375 574.46875 411.839844 C 574.609375 411.441406 574.730469 411.039062 574.824219 410.628906 C 574.921875 410.21875 574.992188 409.804688 575.039062 409.386719 C 575.089844 408.96875 575.113281 408.546875 575.113281 408.128906 C 575.109375 407.707031 575.085938 407.285156 575.039062 406.867188 C 574.988281 406.449219 574.914062 406.035156 574.820312 405.625 C 574.722656 405.214844 574.601562 404.8125 574.460938 404.417969 C 574.316406 404.019531 574.152344 403.632812 573.964844 403.257812 C 573.777344 402.878906 573.566406 402.515625 573.339844 402.160156 C 573.109375 401.808594 572.859375 401.46875 572.589844 401.144531 C 572.324219 400.820312 572.035156 400.511719 571.734375 400.222656 C 571.429688 399.929688 571.109375 399.65625 570.773438 399.402344 L 527.878906 356.507812 C 526.847656 355.445312 525.648438 354.625 524.285156 354.050781 C 522.917969 353.472656 521.496094 353.1875 520.015625 353.1875 C 518.925781 353.1875 517.855469 353.347656 516.8125 353.664062 C 515.769531 353.984375 514.796875 354.449219 513.890625 355.058594 C 512.984375 355.667969 512.1875 356.394531 511.5 357.242188 C 510.8125 358.089844 510.265625 359.019531 509.855469 360.027344 C 509.441406 361.039062 509.1875 362.089844 509.089844 363.175781 C 508.992188 364.261719 509.058594 365.339844 509.28125 366.40625 C 509.503906 367.476562 509.878906 368.488281 510.40625 369.445312 C 510.929688 370.398438 511.585938 371.257812 512.367188 372.019531 L 537.519531 397.171875 L 366.542969 397.171875 C 365.824219 397.171875 365.109375 397.242188 364.402344 397.382812 C 363.695312 397.523438 363.011719 397.734375 362.34375 398.007812 C 361.679688 398.285156 361.046875 398.621094 360.449219 399.023438 C 359.851562 399.421875 359.296875 399.878906 358.785156 400.386719 C 358.277344 400.894531 357.824219 401.449219 357.421875 402.050781 C 357.023438 402.648438 356.683594 403.28125 356.410156 403.945312 C 356.132812 404.609375 355.925781 405.296875 355.785156 406.003906 C 355.644531 406.710938 355.574219 407.421875 355.574219 408.144531 L 355.574219 462.992188 C 355.574219 469.191406 350.800781 473.964844 344.601562 473.964844 L 333.632812 473.964844 C 332.960938 473.964844 332.296875 474.023438 331.636719 474.144531 C 330.980469 474.269531 330.335938 474.449219 329.710938 474.6875 C 329.082031 474.929688 328.484375 475.222656 327.914062 475.574219 C 327.339844 475.921875 326.804688 476.324219 326.304688 476.769531 C 325.804688 477.21875 325.351562 477.707031 324.941406 478.238281 C 324.535156 478.769531 324.175781 479.335938 323.871094 479.933594 C 323.566406 480.527344 323.316406 481.148438 323.125 481.789062 C 322.933594 482.433594 322.800781 483.089844 322.726562 483.753906 L 308.371094 617.730469 C 307.765625 623.390625 303.160156 627.542969 297.464844 627.542969 L 260.101562 627.542969 C 254.40625 627.542969 249.796875 623.402344 249.195312 617.75 C 249.195312 617.742188 249.195312 617.738281 249.195312 617.730469 L 234.839844 483.753906 C 234.765625 483.089844 234.636719 482.433594 234.441406 481.789062 C 234.25 481.148438 234 480.527344 233.695312 479.933594 C 233.390625 479.335938 233.03125 478.769531 232.625 478.238281 C 232.214844 477.707031 231.761719 477.21875 231.261719 476.769531 C 230.761719 476.324219 230.226562 475.921875 229.65625 475.574219 C 229.082031 475.222656 228.484375 474.929688 227.855469 474.6875 C 227.230469 474.449219 226.585938 474.269531 225.929688 474.144531 C 225.269531 474.023438 224.605469 473.964844 223.933594 473.964844 L 212.964844 473.964844 C 206.765625 473.964844 201.992188 469.191406 201.992188 462.992188 L 201.992188 375.234375 C 201.992188 344.804688 226.417969 320.382812 256.84375 320.382812 L 300.722656 320.382812 C 328.066406 320.382812 350.53125 340.210938 354.824219 366.191406 C 354.941406 366.902344 355.125 367.597656 355.378906 368.269531 C 355.632812 368.945312 355.953125 369.589844 356.332031 370.199219 C 356.714844 370.8125 357.148438 371.382812 357.640625 371.90625 C 358.136719 372.433594 358.675781 372.90625 359.261719 373.328125 C 359.847656 373.746094 360.46875 374.105469 361.125 374.402344 C 361.78125 374.699219 362.460938 374.929688 363.160156 375.09375 C 363.863281 375.257812 364.574219 375.351562 365.296875 375.375 C 366.015625 375.398438 366.730469 375.351562 367.441406 375.234375 C 368.152344 375.117188 368.847656 374.929688 369.523438 374.675781 C 370.195312 374.421875 370.839844 374.105469 371.453125 373.722656 C 372.0625 373.34375 372.632812 372.90625 373.160156 372.414062 C 373.683594 371.921875 374.15625 371.382812 374.578125 370.796875 C 374.996094 370.210938 375.355469 369.589844 375.652344 368.933594 C 375.949219 368.277344 376.179688 367.597656 376.34375 366.894531 C 376.507812 366.191406 376.601562 365.480469 376.625 364.761719 C 376.648438 364.039062 376.601562 363.324219 376.484375 362.613281 C 370.464844 326.199219 338.71875 298.445312 300.722656 298.445312 Z M 509.152344 298.445312 C 471.222656 298.445312 439.527344 326.105469 433.433594 362.441406 C 433.28125 363.164062 433.203125 363.898438 433.195312 364.636719 C 433.191406 365.375 433.261719 366.109375 433.402344 366.835938 C 433.546875 367.558594 433.761719 368.265625 434.046875 368.945312 C 434.332031 369.628906 434.683594 370.273438 435.097656 370.886719 C 435.515625 371.496094 435.988281 372.0625 436.519531 372.578125 C 437.046875 373.09375 437.625 373.550781 438.246094 373.949219 C 438.871094 374.347656 439.527344 374.679688 440.214844 374.945312 C 440.90625 375.214844 441.617188 375.40625 442.34375 375.53125 C 443.074219 375.652344 443.808594 375.703125 444.546875 375.675781 C 445.285156 375.652344 446.015625 375.550781 446.734375 375.378906 C 447.453125 375.207031 448.148438 374.960938 448.816406 374.648438 C 449.488281 374.335938 450.121094 373.957031 450.714844 373.515625 C 451.304688 373.074219 451.851562 372.578125 452.34375 372.027344 C 452.835938 371.476562 453.269531 370.882812 453.640625 370.246094 C 454.015625 369.605469 454.320312 368.9375 454.558594 368.234375 C 454.796875 367.535156 454.960938 366.816406 455.054688 366.085938 C 459.402344 340.15625 481.855469 320.382812 509.152344 320.382812 L 553.03125 320.382812 C 583.460938 320.382812 607.882812 344.804688 607.882812 375.234375 L 607.882812 462.992188 C 607.882812 469.191406 603.109375 473.964844 596.914062 473.964844 L 585.941406 473.964844 C 585.273438 473.964844 584.605469 474.023438 583.949219 474.144531 C 583.289062 474.269531 582.644531 474.449219 582.019531 474.6875 C 581.394531 474.929688 580.792969 475.222656 580.222656 475.574219 C 579.648438 475.921875 579.113281 476.324219 578.613281 476.769531 C 578.117188 477.21875 577.660156 477.707031 577.253906 478.238281 C 576.84375 478.769531 576.484375 479.335938 576.179688 479.933594 C 575.875 480.527344 575.625 481.148438 575.433594 481.789062 C 575.242188 482.433594 575.109375 483.089844 575.035156 483.753906 L 560.683594 617.730469 C 560.074219 623.390625 555.46875 627.542969 549.777344 627.542969 L 512.410156 627.542969 C 506.714844 627.542969 502.105469 623.402344 501.503906 617.75 C 501.503906 617.742188 501.503906 617.738281 501.503906 617.730469 L 487.148438 483.753906 C 487.078125 483.089844 486.945312 482.433594 486.753906 481.789062 C 486.558594 481.148438 486.3125 480.527344 486.003906 479.933594 C 485.699219 479.335938 485.34375 478.769531 484.933594 478.238281 C 484.523438 477.707031 484.070312 477.21875 483.570312 476.769531 C 483.070312 476.324219 482.535156 475.921875 481.964844 475.574219 C 481.390625 475.222656 480.792969 474.929688 480.167969 474.6875 C 479.539062 474.449219 478.898438 474.269531 478.238281 474.144531 C 477.578125 474.023438 476.914062 473.964844 476.242188 473.964844 L 465.273438 473.964844 C 459.074219 473.964844 454.304688 469.191406 454.304688 462.992188 L 454.304688 452.023438 C 454.3125 451.296875 454.25 450.574219 454.117188 449.859375 C 453.984375 449.144531 453.785156 448.453125 453.511719 447.777344 C 453.242188 447.101562 452.90625 446.460938 452.507812 445.855469 C 452.109375 445.246094 451.65625 444.683594 451.144531 444.164062 C 450.636719 443.648438 450.078125 443.183594 449.476562 442.777344 C 448.875 442.371094 448.238281 442.027344 447.566406 441.746094 C 446.898438 441.464844 446.203125 441.253906 445.492188 441.113281 C 444.78125 440.96875 444.058594 440.898438 443.332031 440.898438 C 442.605469 440.898438 441.886719 440.96875 441.171875 441.113281 C 440.460938 441.253906 439.769531 441.464844 439.097656 441.746094 C 438.429688 442.027344 437.792969 442.371094 437.1875 442.777344 C 436.585938 443.183594 436.03125 443.648438 435.519531 444.164062 C 435.011719 444.683594 434.554688 445.246094 434.15625 445.855469 C 433.757812 446.460938 433.425781 447.101562 433.152344 447.777344 C 432.882812 448.453125 432.679688 449.144531 432.546875 449.859375 C 432.414062 450.574219 432.351562 451.296875 432.363281 452.023438 L 432.363281 462.992188 C 432.363281 481.039062 447.226562 495.902344 465.273438 495.902344 L 466.386719 495.902344 L 479.691406 620.085938 C 481.46875 636.714844 495.6875 649.484375 512.410156 649.484375 L 549.777344 649.484375 C 566.503906 649.484375 580.707031 636.71875 582.492188 620.085938 L 595.796875 495.902344 L 596.914062 495.902344 C 614.957031 495.902344 629.824219 481.039062 629.824219 462.992188 L 629.824219 375.234375 C 629.824219 332.953125 595.316406 298.445312 553.03125 298.445312 Z M 509.152344 298.445312 " fill-opacity="1" fill-rule="nonzero"/></g><g clip-path="url(#37cd7ec5de)"><path fill="#38b6ff" d="M 287.371094 166.917969 C 257.988281 166.917969 233.863281 191.046875 233.863281 220.425781 C 233.863281 248.238281 255.707031 270.648438 282.941406 273.035156 C 284.351562 273.652344 285.828125 273.953125 287.371094 273.933594 C 288.90625 273.949219 290.375 273.652344 291.78125 273.035156 C 319.023438 270.660156 340.878906 248.246094 340.878906 220.425781 C 340.878906 191.046875 316.75 166.917969 287.371094 166.917969 Z M 533.503906 166.917969 C 504.125 166.917969 480 191.046875 480 220.425781 C 480 248.238281 501.84375 270.648438 529.074219 273.035156 C 530.488281 273.652344 531.964844 273.953125 533.503906 273.933594 C 535.039062 273.949219 536.511719 273.652344 537.914062 273.035156 C 565.15625 270.660156 587.011719 248.246094 587.011719 220.425781 C 587.011719 191.046875 562.886719 166.917969 533.503906 166.917969 Z M 287.371094 188.320312 C 305.078125 188.320312 319.476562 202.71875 319.476562 220.425781 C 319.476562 238.132812 305.078125 252.53125 287.371094 252.53125 C 269.664062 252.53125 255.265625 238.132812 255.265625 220.425781 C 255.265625 202.71875 269.664062 188.320312 287.371094 188.320312 Z M 533.503906 188.320312 C 551.210938 188.320312 565.609375 202.71875 565.609375 220.425781 C 565.609375 238.132812 551.210938 252.53125 533.503906 252.53125 C 515.800781 252.53125 501.402344 238.132812 501.402344 220.425781 C 501.402344 202.71875 515.800781 188.320312 533.503906 188.320312 Z M 265.96875 284.636719 C 224.71875 284.636719 191.058594 318.300781 191.058594 359.546875 L 191.058594 445.160156 C 191.058594 462.761719 205.558594 477.261719 223.160156 477.261719 L 224.25 477.261719 L 237.226562 598.40625 C 238.960938 614.628906 252.832031 627.085938 269.144531 627.085938 L 305.597656 627.085938 C 321.914062 627.085938 335.773438 614.632812 337.511719 598.40625 L 350.492188 477.261719 L 351.578125 477.261719 C 369.183594 477.261719 383.683594 462.761719 383.683594 445.160156 L 383.683594 402.351562 L 539.777344 402.351562 L 515.238281 426.890625 C 514.722656 427.382812 514.265625 427.921875 513.859375 428.507812 C 513.453125 429.09375 513.109375 429.710938 512.824219 430.363281 C 512.542969 431.019531 512.328125 431.691406 512.179688 432.390625 C 512.03125 433.085938 511.957031 433.789062 511.949219 434.5 C 511.941406 435.214844 512.003906 435.917969 512.136719 436.617188 C 512.269531 437.316406 512.472656 437.996094 512.742188 438.65625 C 513.011719 439.316406 513.34375 439.941406 513.738281 440.535156 C 514.128906 441.128906 514.578125 441.675781 515.082031 442.179688 C 515.585938 442.683594 516.132812 443.128906 516.726562 443.523438 C 517.320312 443.917969 517.945312 444.25 518.605469 444.519531 C 519.265625 444.789062 519.941406 444.988281 520.640625 445.125 C 521.339844 445.257812 522.046875 445.320312 522.757812 445.3125 C 523.472656 445.304688 524.175781 445.226562 524.871094 445.082031 C 525.566406 444.933594 526.242188 444.71875 526.894531 444.433594 C 527.550781 444.152344 528.167969 443.808594 528.753906 443.402344 C 529.339844 442.996094 529.878906 442.535156 530.371094 442.023438 L 572.234375 400.15625 C 572.5625 399.910156 572.875 399.640625 573.171875 399.355469 C 573.464844 399.070312 573.746094 398.769531 574.003906 398.453125 C 574.265625 398.136719 574.507812 397.804688 574.730469 397.460938 C 574.957031 397.113281 575.15625 396.757812 575.339844 396.390625 C 575.523438 396.019531 575.683594 395.644531 575.820312 395.257812 C 575.960938 394.871094 576.074219 394.476562 576.167969 394.078125 C 576.261719 393.675781 576.332031 393.273438 576.378906 392.863281 C 576.425781 392.457031 576.449219 392.046875 576.449219 391.636719 C 576.445312 391.222656 576.421875 390.816406 576.375 390.40625 C 576.328125 390 576.257812 389.59375 576.164062 389.195312 C 576.066406 388.792969 575.953125 388.402344 575.8125 388.015625 C 575.671875 387.628906 575.511719 387.25 575.328125 386.882812 C 575.144531 386.515625 574.941406 386.160156 574.71875 385.816406 C 574.492188 385.46875 574.25 385.140625 573.988281 384.824219 C 573.726562 384.507812 573.449219 384.207031 573.152344 383.921875 C 572.855469 383.636719 572.542969 383.371094 572.214844 383.121094 L 530.371094 341.277344 C 529.363281 340.242188 528.195312 339.445312 526.863281 338.882812 C 525.53125 338.320312 524.144531 338.039062 522.699219 338.039062 C 521.636719 338.039062 520.59375 338.195312 519.574219 338.503906 C 518.558594 338.816406 517.609375 339.269531 516.722656 339.863281 C 515.839844 340.457031 515.066406 341.167969 514.394531 341.996094 C 513.722656 342.820312 513.1875 343.726562 512.785156 344.714844 C 512.386719 345.699219 512.136719 346.722656 512.042969 347.785156 C 511.949219 348.84375 512.007812 349.894531 512.226562 350.9375 C 512.445312 351.976562 512.8125 352.964844 513.324219 353.898438 C 513.835938 354.832031 514.476562 355.667969 515.238281 356.410156 L 539.777344 380.949219 L 372.984375 380.949219 C 372.28125 380.949219 371.585938 381.019531 370.894531 381.15625 C 370.207031 381.292969 369.535156 381.496094 368.886719 381.765625 C 368.238281 382.03125 367.621094 382.363281 367.039062 382.753906 C 366.453125 383.144531 365.914062 383.585938 365.417969 384.082031 C 364.917969 384.582031 364.476562 385.121094 364.085938 385.707031 C 363.695312 386.289062 363.363281 386.90625 363.097656 387.554688 C 362.828125 388.203125 362.625 388.875 362.488281 389.5625 C 362.351562 390.253906 362.28125 390.949219 362.28125 391.652344 L 362.28125 445.160156 C 362.28125 451.203125 357.625 455.859375 351.578125 455.859375 L 340.878906 455.859375 C 340.222656 455.859375 339.574219 455.917969 338.933594 456.039062 C 338.289062 456.15625 337.660156 456.335938 337.050781 456.566406 C 336.441406 456.800781 335.855469 457.089844 335.296875 457.429688 C 334.738281 457.773438 334.214844 458.160156 333.730469 458.597656 C 333.242188 459.035156 332.800781 459.511719 332.402344 460.03125 C 332 460.550781 331.652344 461.101562 331.355469 461.683594 C 331.054688 462.265625 330.8125 462.871094 330.625 463.496094 C 330.4375 464.121094 330.308594 464.761719 330.238281 465.410156 L 316.234375 596.109375 C 315.644531 601.628906 311.152344 605.679688 305.597656 605.679688 L 269.144531 605.679688 C 263.589844 605.679688 259.09375 601.644531 258.503906 596.128906 C 258.503906 596.121094 258.503906 596.117188 258.503906 596.109375 L 244.5 465.410156 C 244.429688 464.761719 244.300781 464.121094 244.113281 463.496094 C 243.929688 462.871094 243.683594 462.265625 243.386719 461.683594 C 243.089844 461.101562 242.738281 460.550781 242.339844 460.03125 C 241.941406 459.511719 241.5 459.035156 241.011719 458.597656 C 240.523438 458.160156 240.003906 457.773438 239.445312 457.429688 C 238.886719 457.089844 238.300781 456.800781 237.691406 456.566406 C 237.078125 456.335938 236.453125 456.15625 235.808594 456.039062 C 235.164062 455.917969 234.515625 455.859375 233.863281 455.859375 L 223.160156 455.859375 C 217.113281 455.859375 212.460938 451.203125 212.460938 445.160156 L 212.460938 359.546875 C 212.460938 329.863281 236.285156 306.039062 265.96875 306.039062 L 308.773438 306.039062 C 335.445312 306.039062 357.359375 325.378906 361.550781 350.726562 C 361.664062 351.417969 361.84375 352.09375 362.09375 352.753906 C 362.339844 353.410156 362.652344 354.039062 363.023438 354.636719 C 363.394531 355.234375 363.820312 355.789062 364.300781 356.300781 C 364.78125 356.816406 365.308594 357.277344 365.878906 357.6875 C 366.449219 358.09375 367.054688 358.445312 367.695312 358.734375 C 368.335938 359.023438 369 359.25 369.683594 359.410156 C 370.371094 359.570312 371.0625 359.660156 371.765625 359.683594 C 372.46875 359.707031 373.167969 359.660156 373.859375 359.546875 C 374.554688 359.429688 375.230469 359.25 375.886719 359.003906 C 376.546875 358.753906 377.175781 358.445312 377.769531 358.074219 C 378.367188 357.703125 378.921875 357.277344 379.4375 356.796875 C 379.949219 356.316406 380.410156 355.789062 380.820312 355.21875 C 381.230469 354.644531 381.578125 354.039062 381.871094 353.398438 C 382.160156 352.757812 382.386719 352.097656 382.542969 351.410156 C 382.703125 350.726562 382.796875 350.03125 382.820312 349.328125 C 382.839844 348.628906 382.796875 347.929688 382.679688 347.234375 C 376.808594 311.710938 345.839844 284.636719 308.773438 284.636719 Z M 512.101562 284.636719 C 475.097656 284.636719 444.183594 311.621094 438.238281 347.066406 C 438.085938 347.773438 438.011719 348.488281 438.003906 349.207031 C 438 349.929688 438.066406 350.644531 438.207031 351.351562 C 438.347656 352.058594 438.554688 352.746094 438.835938 353.414062 C 439.113281 354.078125 439.457031 354.710938 439.859375 355.304688 C 440.265625 355.902344 440.730469 356.453125 441.246094 356.953125 C 441.761719 357.457031 442.324219 357.902344 442.933594 358.292969 C 443.539062 358.683594 444.179688 359.007812 444.851562 359.265625 C 445.527344 359.527344 446.21875 359.714844 446.929688 359.835938 C 447.640625 359.957031 448.359375 360.003906 449.078125 359.980469 C 449.800781 359.953125 450.511719 359.855469 451.210938 359.6875 C 451.914062 359.519531 452.589844 359.28125 453.246094 358.976562 C 453.898438 358.671875 454.515625 358.300781 455.09375 357.871094 C 455.671875 357.441406 456.203125 356.957031 456.683594 356.421875 C 457.164062 355.882812 457.585938 355.300781 457.949219 354.679688 C 458.3125 354.054688 458.613281 353.402344 458.84375 352.71875 C 459.074219 352.035156 459.238281 351.335938 459.328125 350.621094 C 463.570312 325.328125 485.476562 306.039062 512.101562 306.039062 L 554.910156 306.039062 C 584.589844 306.039062 608.417969 329.863281 608.417969 359.546875 L 608.417969 445.160156 C 608.417969 451.203125 603.761719 455.859375 597.714844 455.859375 L 587.011719 455.859375 C 586.359375 455.859375 585.710938 455.917969 585.066406 456.039062 C 584.425781 456.15625 583.796875 456.335938 583.1875 456.566406 C 582.574219 456.800781 581.992188 457.089844 581.433594 457.429688 C 580.875 457.773438 580.351562 458.160156 579.863281 458.597656 C 579.378906 459.035156 578.933594 459.511719 578.535156 460.03125 C 578.136719 460.550781 577.789062 461.101562 577.488281 461.683594 C 577.191406 462.265625 576.949219 462.871094 576.761719 463.496094 C 576.574219 464.121094 576.445312 464.761719 576.375 465.410156 L 562.371094 596.109375 C 561.777344 601.628906 557.285156 605.679688 551.730469 605.679688 L 515.28125 605.679688 C 509.726562 605.679688 505.226562 601.644531 504.640625 596.128906 C 504.640625 596.121094 504.640625 596.117188 504.640625 596.109375 L 490.636719 465.410156 C 490.566406 464.761719 490.4375 464.121094 490.25 463.496094 C 490.0625 462.871094 489.820312 462.265625 489.523438 461.683594 C 489.222656 461.101562 488.875 460.550781 488.476562 460.03125 C 488.078125 459.511719 487.632812 459.035156 487.148438 458.597656 C 486.660156 458.160156 486.136719 457.773438 485.578125 457.429688 C 485.019531 457.089844 484.4375 456.800781 483.824219 456.566406 C 483.214844 456.335938 482.585938 456.15625 481.945312 456.039062 C 481.300781 455.917969 480.652344 455.859375 480 455.859375 L 469.296875 455.859375 C 463.25 455.859375 458.59375 451.203125 458.59375 445.160156 L 458.59375 434.457031 C 458.605469 433.746094 458.546875 433.042969 458.414062 432.347656 C 458.285156 431.648438 458.089844 430.972656 457.824219 430.316406 C 457.558594 429.65625 457.234375 429.03125 456.84375 428.4375 C 456.457031 427.84375 456.011719 427.296875 455.515625 426.792969 C 455.015625 426.285156 454.472656 425.835938 453.886719 425.4375 C 453.300781 425.042969 452.679688 424.707031 452.023438 424.433594 C 451.371094 424.160156 450.695312 423.953125 450 423.8125 C 449.304688 423.671875 448.601562 423.601562 447.894531 423.601562 C 447.183594 423.601562 446.480469 423.671875 445.785156 423.8125 C 445.089844 423.953125 444.417969 424.160156 443.761719 424.433594 C 443.109375 424.707031 442.488281 425.042969 441.898438 425.4375 C 441.3125 425.835938 440.769531 426.285156 440.273438 426.792969 C 439.773438 427.296875 439.332031 427.84375 438.941406 428.4375 C 438.554688 429.03125 438.226562 429.65625 437.960938 430.316406 C 437.699219 430.972656 437.5 431.648438 437.371094 432.347656 C 437.242188 433.042969 437.183594 433.746094 437.191406 434.457031 L 437.191406 445.160156 C 437.191406 462.761719 451.691406 477.261719 469.296875 477.261719 L 470.382812 477.261719 L 483.363281 598.40625 C 485.097656 614.628906 498.96875 627.085938 515.28125 627.085938 L 551.730469 627.085938 C 568.050781 627.085938 581.90625 614.632812 583.648438 598.40625 L 596.628906 477.261719 L 597.714844 477.261719 C 615.320312 477.261719 629.820312 462.761719 629.820312 445.160156 L 629.820312 359.546875 C 629.820312 318.300781 596.15625 284.636719 554.910156 284.636719 Z M 512.101562 284.636719 " fill-opacity="1" fill-rule="nonzero"/></g></svg>